<?xml version="1.0" encoding="utf-8"?>
<!-- Generator: Adobe Illustrator 19.2.1, SVG Export Plug-In . SVG Version: 6.00 Build 0)  -->
<svg version="1.1" id="Layer_1" xmlns="http://www.w3.org/2000/svg" xmlns:xlink="http://www.w3.org/1999/xlink" x="0px" y="0px"
	 width="102.7px" height="35.5px" viewBox="0 0 102.7 35.5" enable-background="new 0 0 102.7 35.5" xml:space="preserve">
<g>
	<g>
		<g>
			<path d="M99.6,13.2c-0.2-2.1-0.6-3.9-1.5-5.8c-0.4-0.8-1-1.1-2.1-1.2c-15.8-3-31.1-3.8-43.9-2.7l-4.4,0.4
				C35.5,5,20.7,8.6,5.3,14.3C4.7,14.5,4,15,3.7,16.1C3.1,18.3,3,20.3,3.2,22c0.2,1.8,0.8,3.7,1.6,5.8c0.6,1.2,1.4,1.3,2.9,1.6
				c16,3,30.4,3.8,42.6,2.7l4.4-0.4c12.8-1.1,27.6-4.7,42.5-10.4c1.4-0.6,1.7-0.8,2-2c0.6-2.1,0.6-3.8,0.5-5.9L99.6,13.2z
				 M10.8,26.6l-0.9,0.1c-0.8,0.1-1.5-0.1-1.8-0.8C7.4,24.5,7,23,6.9,21.7c-0.1-1.4,0-2.8,0.5-4.3c0.2-0.7,0.8-1,1.7-1.1l0.9-0.1
				c0.8-0.1,1.1,0.2,0.9,0.9l0,0c-0.9,2.7-0.8,5.5,0.8,8.4C11.9,26.1,11.7,26.5,10.8,26.6z M28.9,28.1c-0.3,0-1.1-0.2-2-0.5
				c-2.1-0.6-9.7-2.9-14-4.1c-0.3-0.1-0.5-0.1-0.8-0.3c-0.4-0.3-0.6-1.5-0.6-1.8s-0.1-1.3,0.2-1.9c0.2-0.3,0.4-0.4,0.7-0.6
				c4-2,11.1-5.5,13-6.5c0.9-0.5,1.6-0.8,1.9-0.9c0.8-0.2,1.1,0.1,1.2,1l0.1,0.8c0,0.2,0,0.4-0.1,0.6c-0.1,0.1-0.4,0.3-0.7,0.5
				c-2.2,1.2-11.2,5.6-13.5,6.7l0,0c2.5,0.7,12.1,3.5,14.5,4.2c0.3,0.1,0.6,0.2,0.7,0.3c0.1,0.1,0.2,0.3,0.2,0.5l0.1,0.8
				C30,27.8,29.8,28.2,28.9,28.1z M48.9,28.7c-1.8,0.1-3.1,0.1-5.2,0.1c-2-0.1-3.1-0.2-5.1-0.4c-0.4,0-1.2-0.1-1.6-0.2
				c-1.2-0.3-1.8-0.4-2.5-0.7c-0.7-0.3-1.4-0.6-1.9-1c-1-1-1.3-1.7-1.4-3.1l-0.7-7.7c-0.1-1.4,0-2.1,0.8-3.3c0.4-0.5,1-1,1.6-1.3
				c0.7-0.4,1.2-0.6,2.3-1.1c0.4-0.2,1.2-0.4,1.5-0.5c1.9-0.5,3-0.8,4.9-1.3c2-0.4,3.4-0.6,5.1-0.9c0.7-0.1,1.2,0.3,1.2,1
				c0,0.1,0,0.6,0.1,0.8c0.1,0.8-0.2,1.1-0.9,1.3c-1.8,0.3-3.4,0.4-5.1,0.8c-1.7,0.3-3.1,0.6-5.2,1c-1,0.2-1.9,0.6-2.6,1.1
				c-0.7,0.5-1,1.2-0.9,1.7l0.8,8.5c0,0.5,0.5,1.2,1.2,1.5s1.7,0.6,2.8,0.6c2.1,0.1,3.5,0.1,5.3,0.1s3.3-0.1,5.2-0.1
				c0.7,0,1.1,0.3,1.1,1.1c0,0.1,0.1,0.6,0.1,0.8C50,28.3,49.6,28.7,48.9,28.7z M45.3,18.7c0,0.8-0.2,1.3-0.9,1.3
				c-1.2,0.1-7.6,0.5-8.1,0.5c-0.6,0-0.8,0-0.9-0.2c-0.1-0.2-0.1-0.6-0.2-1.1c0-0.5-0.1-0.9,0-1.1s0.1-0.4,0.8-0.5
				c0.4-0.1,6.9-0.8,8-1c0.7-0.1,1,0.3,1.2,1.1L45.3,18.7z M69.8,24.3c-1.7,0.7-3.6,1.3-5.3,1.8c-1.7,0.5-2.9,0.8-4.6,1.2
				c-0.3,0.1-1.4,0.4-1.8,0.4c-0.8,0.1-1.5,0.1-2.1-0.1c-0.7-0.1-1.3-0.4-1.8-0.8c-1.1-0.8-1.7-2-1.9-3.6l-1-11.2
				c-0.1-1.6,0.3-2.8,1.2-3.8c0.5-0.5,1-0.9,1.6-1.1c0.6-0.3,1.3-0.4,2.1-0.5c0.4,0,1.5,0,1.8,0.1c1.8,0.1,3,0.2,4.8,0.4
				c1.8,0.2,3.7,0.4,5.5,0.8C69,8,69.2,8.5,69.2,9.1v0.3c0.1,0.7-0.2,1-0.9,0.9c-1.7-0.2-6.2-0.6-10.5-0.7c-1.1,0-2,0.1-2.7,0.5
				s-1,0.8-0.9,1.6c0.1,1.2,0.8,10,1,11.1c0.1,0.7,0.5,1.1,1.2,1.4c0.7,0.2,1.7,0.2,2.7,0c4.2-0.8,8.6-2,10.2-2.5
				c0.7-0.2,1,0,1.1,0.7v0.3C70.6,23.6,70.5,24.1,69.8,24.3z M66.2,16.7c0,0.7-0.3,1.2-1,1.2c-1.1,0.1-5.4,0.6-8.1,1
				c0,0-0.4,0.1-0.6-0.3c-0.2-0.4-0.2-0.9-0.3-1.2c0-0.4-0.1-1.1,0-1.4c0.1-0.4,0.6-0.4,0.6-0.4c2.7-0.1,7.1-0.4,8.2-0.5
				c0.7-0.1,1,0.3,1.2,1.1V16.7z M91.3,16.7c0,0.5,0,0.8-0.2,1.3c-0.1,0.4-0.7,0.1-0.9,0c-1.7-0.9-4.1-2.2-5.9-3
				c-2.7-1.3-5.5-2.5-8.2-3.6c0.2,1.8,0.4,3.6,0.6,5.5c0.1,1.8,0.2,3.6,0.2,5.5c0,0.6-0.4,1-1.1,1.1c-0.3,0-0.6,0.1-0.9,0.1
				c-0.7,0.1-1-0.2-1.1-0.9c-0.2-2.2-0.3-4.4-0.5-6.5c-0.2-2.2-0.5-4.4-0.7-6.5V9.1c0-0.2,0-0.4,0.1-0.6C72.8,8.3,73,8.2,73.2,8
				c0.2-0.1,0.4-0.2,0.5-0.2s0.2,0,0.4,0c0.4,0,0.9,0.1,1.4,0.3c0.1,0.1,6.1,2.7,8.9,3.8c2.2,0.9,4.2,1.8,6.4,2.8
				c0.2,0.1,0.5,0.2,0.5,0.4C91.4,15.4,91.3,16.2,91.3,16.7z M95.9,17.4c-0.1,0.7-0.4,1.3-0.9,1.6c-0.4,0.2-1,0.3-1.7,0.4
				c-0.3,0-0.5,0-0.7-0.2c-0.1-0.1-0.1-0.3,0-0.4c0.1-1.2,0.2-2.8,0.2-4.3c0-0.4,0-0.8-0.1-1.1c-0.1-1.2-0.4-2.5-0.9-3.5
				c-0.3-0.6,0-1,0.7-1l0.9-0.1C94.2,8.7,94.8,9,95,9.6c0.5,1.3,1,2.4,1.1,3.9C96.3,15.2,96.2,16.1,95.9,17.4z"/>
			<path d="M102.6,13.3V13c-0.3-2.4-0.8-4.5-1.8-6.7c-0.8-1.7-2.1-2.8-3.7-3.2C81.2,0.3,64.7-0.7,51.8,0.5l-4.3,0.4
				C35.1,1.9,19.2,5.8,4,11.6l0,0l-0.2,0.1c-1.5,0.6-2.6,1.9-3.1,3.7c-0.6,2.5-0.8,4.8-0.6,6.9s0.8,4.4,1.8,6.7
				c0.8,1.7,2.1,2.8,3.7,3.2c16.2,3,32.5,4,44.9,2.9l4.3-0.4c12.9-1.2,29-5,44-10.7c1.7-0.7,2.8-2,3.2-3.8
				C102.6,17.9,102.8,15.7,102.6,13.3z M100.5,19.7c-0.3,1.3-1.1,2.2-2.2,2.7C83.4,28,67.5,31.9,54.7,33l-4.3,0.4
				C38.2,34.5,22,33.5,6,30.6c-1.1-0.2-2-1-2.6-2.2c-1-2.2-1.5-4.3-1.7-6.2c-0.2-1.9,0-4,0.6-6.4c0.3-1.3,1.1-2.2,2.1-2.6h0.1l0,0
				C19.7,7.4,35.4,3.5,47.6,2.4L52,2.1C64.8,1,81.1,2,96.9,4.8c1.1,0.2,2,1,2.6,2.2c0.9,2,1.4,3.9,1.6,6.1v0.2
				C101.2,15.7,101,17.6,100.5,19.7z"/>
			<path fill="#FFDD00" d="M29.8,26.1c0-0.2-0.1-0.4-0.2-0.5s-0.4-0.2-0.7-0.3c-2.4-0.8-12-3.5-14.5-4.2l0,0
				c2.3-1.2,11.3-5.6,13.5-6.7c0.3-0.2,0.6-0.3,0.7-0.5c0.1-0.1,0.1-0.4,0.1-0.6l-0.1-0.8c-0.1-1-0.4-1.3-1.2-1
				c-0.3,0.1-1,0.4-1.9,0.9c-1.9,1-9,4.5-13,6.5c-0.3,0.2-0.6,0.3-0.7,0.6c-0.3,0.6-0.2,1.7-0.2,1.9c0,0.3,0.3,1.5,0.6,1.8
				c0.3,0.2,0.5,0.2,0.8,0.3c4.3,1.2,11.9,3.5,14,4.1c0.9,0.3,1.7,0.5,2,0.5c0.9,0.1,1.1-0.3,1-1.2L29.8,26.1z"/>
			<path fill="#FFDD00" d="M48.7,25.6c-1.9,0-3.4,0.2-5.2,0.1c-1.8,0-3.1,0-5.3-0.1c-1.1,0-2-0.2-2.8-0.6c-0.7-0.3-1.1-1-1.2-1.5
				L33.6,15c0-0.6,0.2-1.3,0.9-1.7c0.7-0.5,1.6-0.8,2.6-1.1c2.1-0.4,3.4-0.7,5.2-1s3.3-0.5,5.1-0.8c0.7-0.1,1-0.5,0.9-1.3
				c0-0.1,0-0.6-0.1-0.8c-0.1-0.8-0.5-1.2-1.2-1c-1.8,0.2-3.1,0.4-5.1,0.9c-2,0.4-3,0.8-4.9,1.3c-0.4,0.1-1.1,0.3-1.5,0.5
				c-1.1,0.4-1.7,0.7-2.3,1.1c-0.6,0.4-1.3,0.8-1.6,1.3c-0.8,1.2-1,1.9-0.8,3.3l0.7,7.7c0.1,1.4,0.4,2.1,1.4,3.1
				c0.5,0.4,1.2,0.8,1.9,1c0.7,0.3,1.3,0.4,2.5,0.7c0.4,0.1,1.2,0.2,1.6,0.2c2,0.2,3.1,0.3,5.1,0.4c2.1,0.1,3.4,0,5.2-0.1
				c0.7,0,1.1-0.5,1-1.3c0-0.1-0.1-0.6-0.1-0.8C49.8,25.9,49.5,25.6,48.7,25.6z"/>
			<path fill="#FFDD00" d="M44,16.6c-1.2,0.2-7.6,0.9-8,1c-0.8,0.1-0.8,0.3-0.8,0.5s0,0.6,0,1.1s0.1,0.9,0.2,1.1
				c0.1,0.2,0.3,0.3,0.9,0.2c0.4,0,6.9-0.4,8.1-0.5c0.7-0.1,1-0.5,0.9-1.3l-0.1-1C45,16.9,44.7,16.5,44,16.6z"/>
			<path fill="#FFDD00" d="M10.8,17.1L10.8,17.1c0.2-0.7-0.1-1-0.9-0.9L9,16.3c-0.8,0.1-1.4,0.4-1.7,1.1c-0.5,1.5-0.6,2.9-0.5,4.3
				C7,23,7.4,24.5,8.1,25.8c0.4,0.7,1,0.9,1.8,0.8l0.9-0.1c0.8-0.1,1-0.4,0.8-1C10,22.6,9.9,19.8,10.8,17.1z"/>
			<path fill="#FFDD00" d="M90.8,14.7c-2.1-1-4.1-1.8-6.4-2.8c-2.8-1.2-8.8-3.8-8.9-3.8c-0.6-0.2-1-0.3-1.4-0.3c-0.1,0-0.2,0-0.4,0
				c-0.1,0-0.3,0.1-0.5,0.2c-0.2,0.1-0.3,0.3-0.4,0.5s-0.1,0.3-0.1,0.6v0.6c0.2,2.2,0.5,4.4,0.7,6.5s0.3,4.3,0.5,6.5
				c0.1,0.6,0.4,0.9,1.1,0.9c0.3,0,0.6-0.1,0.9-0.1c0.7-0.1,1.1-0.4,1.1-1.1c0-1.9-0.1-3.7-0.2-5.5c-0.2-1.8-0.3-3.6-0.6-5.5
				c2.7,1.2,5.5,2.4,8.2,3.6c1.8,0.8,4.2,2,5.9,3c0.3,0.1,0.8,0.4,0.9,0s0.1-0.8,0.2-1.3c0-0.5,0.1-1.4,0-1.6
				C91.2,14.9,91,14.7,90.8,14.7z"/>
			<path fill="#FFDD00" d="M101,13.2c-0.2-2.2-0.7-4.1-1.6-6.1c-0.6-1.2-1.5-2-2.6-2.2c-15.7-3-32-4-44.8-2.8l-4.3,0.4
				c-12.2,1.1-27.9,5-43.1,10.7l0,0H4.5c-1.1,0.4-1.8,1.4-2.1,2.6c-0.6,2.3-0.8,4.5-0.6,6.4s0.7,4,1.7,6.2c0.5,1.2,1.5,2,2.6,2.2
				c16,2.9,32.2,4,44.4,2.9l4.3-0.4c12.8-1.1,28.7-5,43.6-10.6c1.1-0.5,1.9-1.4,2.2-2.7c0.5-2.1,0.7-4.1,0.5-6.3L101,13.2z
				 M99.2,19.3c-0.3,1.2-0.6,1.4-2,2c-15,5.7-29.7,9.2-42.6,10.4l-4.4,0.4C38,33.2,23.6,32.4,7.6,29.4c-1.5-0.3-2.2-0.4-2.9-1.6
				c-0.8-2.1-1.4-4-1.6-5.8c-0.2-1.7-0.1-3.8,0.5-5.9c0.3-1.1,1-1.6,1.6-1.8C20.7,8.6,35.5,5,47.7,3.9l4.4-0.4
				C64.9,2.4,80.2,3.2,96,6.2c1.1,0.1,1.7,0.4,2.1,1.2c0.9,1.8,1.3,3.7,1.5,5.8v0.2C99.8,15.5,99.7,17.3,99.2,19.3z"/>
			<path fill="#FFDD00" d="M70.5,22.6c-0.1-0.7-0.4-0.9-1.1-0.7c-1.7,0.5-6,1.6-10.2,2.5c-1,0.2-2,0.2-2.7,0
				c-0.7-0.3-1.1-0.7-1.2-1.4c-0.1-1.2-0.9-9.9-1-11.1c0-0.7,0.2-1.2,0.9-1.6c0.7-0.4,1.6-0.5,2.7-0.5c4.3,0.1,8.8,0.5,10.5,0.7
				c0.7,0.1,1-0.2,0.9-0.9V9.3c-0.1-0.6-0.2-1.1-0.9-1.2c-1.8-0.4-3.7-0.6-5.5-0.8c-1.8-0.2-3-0.3-4.8-0.4c-0.4,0-1.4-0.1-1.8-0.1
				c-0.8,0.1-1.5,0.2-2.1,0.5S53,8,52.6,8.4c-0.9,1-1.4,2.3-1.2,3.8l1,11.2c0.1,1.6,0.8,2.8,1.9,3.6c0.5,0.4,1.1,0.7,1.8,0.8
				c0.7,0.1,1.4,0.2,2.1,0.1c0.4,0,1.4-0.3,1.8-0.4c1.7-0.4,2.9-0.7,4.6-1.2c1.7-0.5,3.6-1.1,5.3-1.8c0.7-0.3,0.7-0.7,0.7-1.4
				L70.5,22.6z"/>
			<path fill="#FFDD00" d="M95,9.6c-0.3-0.7-0.9-0.9-1.6-0.8l-0.9,0.1c-0.7,0.1-1,0.4-0.7,1c0.5,1,0.8,2.2,0.9,3.5
				c0.1,0.4,0.1,0.7,0.1,1.1c0.1,1.5,0,3.1-0.2,4.3c0,0.2,0,0.3,0,0.4c0.2,0.2,0.4,0.2,0.7,0.2c0.7-0.1,1.3-0.1,1.7-0.4
				c0.5-0.3,0.7-0.9,0.9-1.6c0.2-1.3,0.4-2.2,0.2-3.9C96,11.9,95.6,10.8,95,9.6z"/>
			<path fill="#FFDD00" d="M65,15.1c-1.1,0.1-5.4,0.3-8.2,0.5c0,0-0.5,0-0.6,0.4c-0.1,0.3,0,1,0,1.4s0.1,0.9,0.3,1.2
				c0.2,0.3,0.6,0.3,0.6,0.3c2.7-0.4,7-0.9,8.1-1c0.7-0.1,1-0.5,1-1.2v-0.5C66,15.4,65.7,15,65,15.1z"/>
		</g>
	</g>
</g>
</svg>
