<svg xmlns="http://www.w3.org/2000/svg" width="102.7" height="35.5" viewBox="0 0 102.7 35.5"><path d="M99.6 13.2c-.2-2.1-.6-3.9-1.5-5.8-.4-.8-1-1.1-2.1-1.2-15.8-3-31.1-3.8-43.9-2.7l-4.4.4C35.5 5 20.7 8.6 5.3 14.3c-.6.2-1.3.7-1.6 1.8-.6 2.2-.7 4.2-.5 5.9.2 1.8.8 3.7 1.6 5.8.6 1.2 1.4 1.3 2.9 1.6 16 3 30.4 3.8 42.6 2.7l4.4-.4c12.8-1.1 27.6-4.7 42.5-10.4 1.4-.6 1.7-.8 2-2 .6-2.1.6-3.8.5-5.9l-.1-.2zM10.8 26.6l-.9.1c-.8.1-1.5-.1-1.8-.8-.7-1.4-1.1-2.9-1.2-4.2-.1-1.4 0-2.8.5-4.3.2-.7.8-1 1.7-1.1l.9-.1c.8-.1 1.1.2.9.9-.9 2.7-.8 5.5.8 8.4.2.6 0 1-.9 1.1zm18.1 1.5c-.3 0-1.1-.2-2-.5-2.1-.6-9.7-2.9-14-4.1-.3-.1-.5-.1-.8-.3-.4-.3-.6-1.5-.6-1.8s-.1-1.3.2-1.9c.2-.3.4-.4.7-.6 4-2 11.1-5.5 13-6.5.9-.5 1.6-.8 1.9-.9.8-.2 1.1.1 1.2 1l.1.8c0 .2 0 .4-.1.6-.1.1-.4.3-.7.5-2.2 1.2-11.2 5.6-13.5 6.7 2.5.7 12.1 3.5 14.5 4.2.3.1.6.2.7.3.1.1.2.3.2.5l.1.8c.2.9 0 1.3-.9 1.2zm20 .6c-1.8.1-3.1.1-5.2.1-2-.1-3.1-.2-5.1-.4-.4 0-1.2-.1-1.6-.2-1.2-.3-1.8-.4-2.5-.7-.7-.3-1.4-.6-1.9-1-1-1-1.3-1.7-1.4-3.1l-.7-7.7c-.1-1.4 0-2.1.8-3.3.4-.5 1-1 1.6-1.3.7-.4 1.2-.6 2.3-1.1.4-.2 1.2-.4 1.5-.5 1.9-.5 3-.8 4.9-1.3 2-.4 3.4-.6 5.1-.9.7-.1 1.2.3 1.2 1 0 .1 0 .6.1.8.1.8-.2 1.1-.9 1.3-1.8.3-3.4.4-5.1.8-1.7.3-3.1.6-5.2 1-1 .2-1.9.6-2.6 1.1-.7.5-1 1.2-.9 1.7l.8 8.5c0 .5.5 1.2 1.2 1.5s1.7.6 2.8.6c2.1.1 3.5.1 5.3.1s3.3-.1 5.2-.1c.7 0 1.1.3 1.1 1.1 0 .1.1.6.1.8.2.8-.2 1.2-.9 1.2zm-3.6-10c0 .8-.2 1.3-.9 1.3-1.2.1-7.6.5-8.1.5-.6 0-.8 0-.9-.2-.1-.2-.1-.6-.2-1.1 0-.5-.1-.9 0-1.1s.1-.4.8-.5c.4-.1 6.9-.8 8-1 .7-.1 1 .3 1.2 1.1l.1 1zm24.5 5.6c-1.7.7-3.6 1.3-5.3 1.8-1.7.5-2.9.8-4.6 1.2-.3.1-1.4.4-1.8.4-.8.1-1.5.1-2.1-.1-.7-.1-1.3-.4-1.8-.8-1.1-.8-1.7-2-1.9-3.6l-1-11.2c-.1-1.6.3-2.8 1.2-3.8.5-.5 1-.9 1.6-1.1.6-.3 1.3-.4 2.1-.5.4 0 1.5 0 1.8.1 1.8.1 3 .2 4.8.4 1.8.2 3.7.4 5.5.8.7.1.9.6.9 1.2v.3c.1.7-.2 1-.9.9-1.7-.2-6.2-.6-10.5-.7-1.1 0-2 .1-2.7.5s-1 .8-.9 1.6c.1 1.2.8 10 1 11.1.1.7.5 1.1 1.2 1.4.7.2 1.7.2 2.7 0 4.2-.8 8.6-2 10.2-2.5.7-.2 1 0 1.1.7v.3c.2.9.1 1.4-.6 1.6zm-3.6-7.6c0 .7-.3 1.2-1 1.2-1.1.1-5.4.6-8.1 1 0 0-.4.1-.6-.3-.2-.4-.2-.9-.3-1.2 0-.4-.1-1.1 0-1.4.1-.4.6-.4.6-.4 2.7-.1 7.1-.4 8.2-.5.7-.1 1 .3 1.2 1.1v.5zm25.1 0c0 .5 0 .8-.2 1.3-.1.4-.7.1-.9 0-1.7-.9-4.1-2.2-5.9-3-2.7-1.3-5.5-2.5-8.2-3.6.2 1.8.4 3.6.6 5.5.1 1.8.2 3.6.2 5.5 0 .6-.4 1-1.1 1.1-.3 0-.6.1-.9.1-.7.1-1-.2-1.1-.9-.2-2.2-.3-4.4-.5-6.5-.2-2.2-.5-4.4-.7-6.5v-.6c0-.2 0-.4.1-.6.1-.2.3-.3.5-.5.2-.1.4-.2.5-.2h.4c.4 0 .9.1 1.4.3.1.1 6.1 2.7 8.9 3.8 2.2.9 4.2 1.8 6.4 2.8.2.1.5.2.5.4.1.3 0 1.1 0 1.6zm4.6.7c-.1.7-.4 1.3-.9 1.6-.4.2-1 .3-1.7.4-.3 0-.5 0-.7-.2-.1-.1-.1-.3 0-.4.1-1.2.2-2.8.2-4.3 0-.4 0-.8-.1-1.1-.1-1.2-.4-2.5-.9-3.5-.3-.6 0-1 .7-1l.9-.1c.8-.1 1.4.2 1.6.8.5 1.3 1 2.4 1.1 3.9.2 1.7.1 2.6-.2 3.9z"/><path d="M102.6 13.3V13c-.3-2.4-.8-4.5-1.8-6.7-.8-1.7-2.1-2.8-3.7-3.2C81.2.3 64.7-.7 51.8.5l-4.3.4C35.1 1.9 19.2 5.8 4 11.6l-.2.1c-1.5.6-2.6 1.9-3.1 3.7-.6 2.5-.8 4.8-.6 6.9s.8 4.4 1.8 6.7c.8 1.7 2.1 2.8 3.7 3.2 16.2 3 32.5 4 44.9 2.9l4.3-.4c12.9-1.2 29-5 44-10.7 1.7-.7 2.8-2 3.2-3.8.6-2.3.8-4.5.6-6.9zm-2.1 6.4c-.3 1.3-1.1 2.2-2.2 2.7C83.4 28 67.5 31.9 54.7 33l-4.3.4C38.2 34.5 22 33.5 6 30.6c-1.1-.2-2-1-2.6-2.2-1-2.2-1.5-4.3-1.7-6.2-.2-1.9 0-4 .6-6.4.3-1.3 1.1-2.2 2.1-2.6h.1C19.7 7.4 35.4 3.5 47.6 2.4l4.4-.3C64.8 1 81.1 2 96.9 4.8c1.1.2 2 1 2.6 2.2.9 2 1.4 3.9 1.6 6.1v.2c.1 2.4-.1 4.3-.6 6.4z"/><path fill="#FD0" d="M29.8 26.1c0-.2-.1-.4-.2-.5s-.4-.2-.7-.3c-2.4-.8-12-3.5-14.5-4.2 2.3-1.2 11.3-5.6 13.5-6.7.3-.2.6-.3.7-.5.1-.1.1-.4.1-.6l-.1-.8c-.1-1-.4-1.3-1.2-1-.3.1-1 .4-1.9.9-1.9 1-9 4.5-13 6.5-.3.2-.6.3-.7.6-.3.6-.2 1.7-.2 1.9 0 .3.3 1.5.6 1.8.3.2.5.2.8.3 4.3 1.2 11.9 3.5 14 4.1.9.3 1.7.5 2 .5.9.1 1.1-.3 1-1.2l-.2-.8zM48.7 25.6c-1.9 0-3.4.2-5.2.1-1.8 0-3.1 0-5.3-.1-1.1 0-2-.2-2.8-.6-.7-.3-1.1-1-1.2-1.5l-.6-8.5c0-.6.2-1.3.9-1.7.7-.5 1.6-.8 2.6-1.1 2.1-.4 3.4-.7 5.2-1s3.3-.5 5.1-.8c.7-.1 1-.5.9-1.3 0-.1 0-.6-.1-.8-.1-.8-.5-1.2-1.2-1-1.8.2-3.1.4-5.1.9-2 .4-3 .8-4.9 1.3-.4.1-1.1.3-1.5.5-1.1.4-1.7.7-2.3 1.1-.6.4-1.3.8-1.6 1.3-.8 1.2-1 1.9-.8 3.3l.7 7.7c.1 1.4.4 2.1 1.4 3.1.5.4 1.2.8 1.9 1 .7.3 1.3.4 2.5.7.4.1 1.2.2 1.6.2 2 .2 3.1.3 5.1.4 2.1.1 3.4 0 5.2-.1.7 0 1.1-.5 1-1.3 0-.1-.1-.6-.1-.8-.3-.7-.6-1-1.4-1z"/><path fill="#FD0" d="M44 16.6c-1.2.2-7.6.9-8 1-.8.1-.8.3-.8.5v1.1c0 .5.1.9.2 1.1.1.2.3.3.9.2.4 0 6.9-.4 8.1-.5.7-.1 1-.5.9-1.3l-.1-1c-.2-.8-.5-1.2-1.2-1.1zM10.8 17.1c.2-.7-.1-1-.9-.9l-.9.1c-.8.1-1.4.4-1.7 1.1-.5 1.5-.6 2.9-.5 4.3.2 1.3.6 2.8 1.3 4.1.4.7 1 .9 1.8.8l.9-.1c.8-.1 1-.4.8-1-1.6-2.9-1.7-5.7-.8-8.4zM90.8 14.7c-2.1-1-4.1-1.8-6.4-2.8-2.8-1.2-8.8-3.8-8.9-3.8-.6-.2-1-.3-1.4-.3h-.4c-.1 0-.3.1-.5.2s-.3.3-.4.5-.1.3-.1.6v.6c.2 2.2.5 4.4.7 6.5s.3 4.3.5 6.5c.1.6.4.9 1.1.9.3 0 .6-.1.9-.1.7-.1 1.1-.4 1.1-1.1 0-1.9-.1-3.7-.2-5.5-.2-1.8-.3-3.6-.6-5.5 2.7 1.2 5.5 2.4 8.2 3.6 1.8.8 4.2 2 5.9 3 .3.1.8.4.9 0s.1-.8.2-1.3c0-.5.1-1.4 0-1.6-.2-.2-.4-.4-.6-.4z"/><path fill="#FD0" d="M101 13.2c-.2-2.2-.7-4.1-1.6-6.1-.6-1.2-1.5-2-2.6-2.2-15.7-3-32-4-44.8-2.8l-4.3.4c-12.2 1.1-27.9 5-43.1 10.7h-.1c-1.1.4-1.8 1.4-2.1 2.6-.6 2.3-.8 4.5-.6 6.4s.7 4 1.7 6.2c.5 1.2 1.5 2 2.6 2.2 16 2.9 32.2 4 44.4 2.9l4.3-.4c12.8-1.1 28.7-5 43.6-10.6 1.1-.5 1.9-1.4 2.2-2.7.5-2.1.7-4.1.5-6.3l-.1-.3zm-1.8 6.1c-.3 1.2-.6 1.4-2 2-15 5.7-29.7 9.2-42.6 10.4l-4.4.4c-12.2 1.1-26.6.3-42.6-2.7-1.5-.3-2.2-.4-2.9-1.6-.8-2.1-1.4-4-1.6-5.8-.2-1.7-.1-3.8.5-5.9.3-1.1 1-1.6 1.6-1.8C20.7 8.6 35.5 5 47.7 3.9l4.4-.4C64.9 2.4 80.2 3.2 96 6.2c1.1.1 1.7.4 2.1 1.2.9 1.8 1.3 3.7 1.5 5.8v.2c.2 2.1.1 3.9-.4 5.9z"/><path fill="#FD0" d="M70.5 22.6c-.1-.7-.4-.9-1.1-.7-1.7.5-6 1.6-10.2 2.5-1 .2-2 .2-2.7 0-.7-.3-1.1-.7-1.2-1.4-.1-1.2-.9-9.9-1-11.1 0-.7.2-1.2.9-1.6.7-.4 1.6-.5 2.7-.5 4.3.1 8.8.5 10.5.7.7.1 1-.2.9-.9v-.3c-.1-.6-.2-1.1-.9-1.2-1.8-.4-3.7-.6-5.5-.8-1.8-.2-3-.3-4.8-.4-.4 0-1.4-.1-1.8-.1-.8.1-1.5.2-2.1.5S53 8 52.6 8.4c-.9 1-1.4 2.3-1.2 3.8l1 11.2c.1 1.6.8 2.8 1.9 3.6.5.4 1.1.7 1.8.8.7.1 1.4.2 2.1.1.4 0 1.4-.3 1.8-.4 1.7-.4 2.9-.7 4.6-1.2 1.7-.5 3.6-1.1 5.3-1.8.7-.3.7-.7.7-1.4l-.1-.5zM95 9.6c-.3-.7-.9-.9-1.6-.8l-.9.1c-.7.1-1 .4-.7 1 .5 1 .8 2.2.9 3.5.1.4.1.7.1 1.1.1 1.5 0 3.1-.2 4.3v.4c.2.2.4.2.7.2.7-.1 1.3-.1 1.7-.4.5-.3.7-.9.9-1.6.2-1.3.4-2.2.2-3.9-.1-1.6-.5-2.7-1.1-3.9z"/><path fill="#FD0" d="M65 15.1c-1.1.1-5.4.3-8.2.5 0 0-.5 0-.6.4-.1.3 0 1 0 1.4s.1.9.3 1.2c.2.3.6.3.6.3 2.7-.4 7-.9 8.1-1 .7-.1 1-.5 1-1.2v-.5c-.2-.8-.5-1.2-1.2-1.1z"/></svg>